<?xml version="1.0" standalone="no"?>
<!DOCTYPE svg PUBLIC "-//W3C//DTD SVG 20010904//EN"
 "http://www.w3.org/TR/2001/REC-SVG-20010904/DTD/svg10.dtd">
<svg version="1.0" xmlns="http://www.w3.org/2000/svg"
 width="512.000000pt" height="512.000000pt" viewBox="0 0 512.000000 512.000000"
 preserveAspectRatio="xMidYMid meet">

<g transform="translate(0.000000,512.000000) scale(0.100000,-0.100000)"
fill="#F2703F" stroke="none">
<path d="M2340 4749 c-441 -48 -855 -223 -1185 -499 -93 -78 -243 -230 -311
-314 -352 -437 -528 -1025 -473 -1582 41 -422 213 -847 473 -1170 191 -238
471 -462 739 -593 332 -162 612 -226 982 -225 219 0 323 13 533 65 166 41 407
133 399 153 -3 6 -127 273 -276 593 -149 319 -271 586 -271 592 0 6 4 11 9 11
5 0 42 22 84 49 89 58 181 148 233 225 29 44 40 54 53 46 9 -5 257 -166 551
-358 535 -349 535 -350 553 -328 39 47 169 329 211 456 77 237 108 435 108
690 0 255 -31 454 -108 690 -230 702 -813 1248 -1532 1435 -236 62 -555 88
-772 64z m-361 -929 c240 -517 227 -454 112 -519 -63 -35 -172 -134 -232 -210
l-34 -43 -310 202 c-171 112 -327 213 -348 227 l-37 23 36 72 c80 158 189 316
323 467 81 92 262 254 272 244 3 -5 102 -213 218 -463z m799 -613 c106 -37
176 -82 262 -167 85 -85 129 -155 168 -262 24 -66 26 -87 26 -218 0 -131 -2
-152 -26 -218 -39 -107 -83 -177 -168 -262 -85 -85 -155 -129 -262 -168 -66
-24 -87 -26 -218 -26 -131 0 -152 2 -218 26 -107 39 -177 83 -262 168 -134
134 -189 260 -198 448 -3 86 0 130 13 185 58 245 246 440 492 508 101 28 290
22 391 -14z"/>
<path d="M1640 3708 c-164 -83 -104 -330 80 -330 140 0 225 157 147 274 -27
40 -98 78 -147 78 -20 0 -56 -10 -80 -22z"/>
</g>
</svg>
