<?xml version="1.0" standalone="no"?>
<!DOCTYPE svg PUBLIC "-//W3C//DTD SVG 20010904//EN"
 "http://www.w3.org/TR/2001/REC-SVG-20010904/DTD/svg10.dtd">
<svg version="1.0" xmlns="http://www.w3.org/2000/svg"
 width="128.000000pt" height="128.000000pt" viewBox="0 0 128.000000 128.000000"
 preserveAspectRatio="xMidYMid meet">

<g transform="translate(0.000000,128.000000) scale(0.100000,-0.100000)"
fill="#000000" stroke="none">
<path d="M560 1020 c-103 -16 -227 -68 -325 -138 -65 -46 -202 -179 -221 -214
-21 -39 -5 -65 103 -169 178 -172 325 -241 513 -242 105 -1 171 14 278 64 102
47 164 91 265 189 98 93 113 119 93 158 -18 34 -175 187 -236 229 -149 101
-319 146 -470 123z m163 -91 c43 -6 104 -26 152 -48 87 -41 215 -138 265 -201
l31 -39 -28 -36 c-36 -45 -134 -125 -209 -170 -123 -74 -257 -104 -379 -85
-132 22 -337 145 -420 254 l-27 35 25 33 c14 18 56 58 92 88 113 94 234 153
345 169 79 12 74 12 153 0z"/>
<path d="M579 856 c-82 -22 -140 -84 -160 -171 -22 -100 36 -213 130 -253 46
-19 136 -19 181 0 45 19 99 73 118 118 19 45 19 135 0 180 -43 101 -161 156
-269 126z m140 -103 c85 -63 75 -186 -20 -236 -92 -49 -208 33 -195 137 12
104 133 159 215 99z"/>
</g>
</svg>
